<svg height="95.84868426513212" width="320" style="width: 320px; height: 95.8487px; position: absolute; top: 50%; left: 50%; transform: translate(-50%, -50%) scale(1); z-index: 0; cursor: pointer;">
    <!-- <defs id="SvgjsDefs1001"></defs> -->
    <g id="SvgjsG1007" featurekey="symbolFeature-0" transform="matrix(1.326717291760591,0,0,1.326717291760591,-10.93215018044578,-17.18231086798398)" fill="#f70776">
        <!-- <g xmlns="http://www.w3.org/2000/svg"> -->
        <path d="M47.49,15.479c18.524,0,33.596,15.07,33.596,33.594c0,4.146-0.762,8.115-2.143,11.787l0.896,4.265   c2.412-4.84,3.775-10.289,3.775-16.052c0-19.918-16.205-36.122-36.124-36.122c-15.062,0-27.994,9.27-33.406,22.401l2.414,0.769   C21.579,24.009,33.556,15.479,47.49,15.479"></path>
        <path d="M47.49,82.666c-1.04,0-2.068-0.056-3.086-0.148l-4.688,1.825c2.506,0.552,5.104,0.853,7.773,0.853   c5.54,0,10.791-1.257,15.487-3.495l-3.424-1.283C55.807,81.864,51.742,82.666,47.49,82.666"></path>
        <rect x="13.26" y="73.248" transform="matrix(-0.9312 -0.3644 0.3644 -0.9312 13.8243 150.3567)" width="15.677" height="1.253"></rect>
        <rect x="57.473" y="72.972" transform="matrix(0.9365 0.3507 -0.3507 0.9365 29.9852 -18.3802)" width="16.532" height="1.249"></rect>
        <rect x="34.877" y="73.166" transform="matrix(-0.933 0.3599 -0.3599 -0.933 109.0942 127.2707)" width="15.642" height="1.251"></rect>
        <path d="M59.4,42.228c-0.348,0.729-0.744,1.446-1.169,2.157l11.701,3.481l6.794,32.412l-21.021-7.874l-1.472-21.723   c-0.113,0.197-0.229,0.394-0.35,0.594c-0.2,0.334-0.402,0.673-0.588,1.012c-0.414,0.707-0.814,1.398-1.218,2.095l1.224,18.07   l-20.345,7.919l2.278-32.542l3.643-1.121c-0.436-0.699-0.87-1.404-1.284-2.117l-3.486,1.074l-18.482-5.882L8.24,74.002   l23.557,9.216l0.13-0.333l0.155,0.401l22.477-8.748l25.415,9.519l-7.984-38.085L59.4,42.228z M30.566,80.16L11.02,72.511   l6.395-29.641l15.418,4.906L30.566,80.16z"></path>
        <path d="M58.769,35.967c0-0.392-0.487-1.769-0.514-1.853c-0.113-0.421-0.341-0.872-0.511-1.266c-2.021-4.858-6.439-6.6-10.008-6.6   c-4.775,0-10.035,3.202-10.738,9.804v1.347c0,0.057,0.02,0.562,0.047,0.816c0.394,3.144,2.876,6.488,4.73,9.634   c1.994,3.37,4.062,6.686,6.114,10c1.266-2.163,2.525-4.354,3.76-6.461c0.338-0.619,0.729-1.235,1.064-1.824   c0.224-0.396,0.655-0.787,0.851-1.152c1.994-3.652,5.204-7.332,5.204-10.956V35.967z M47.858,41.005   c-2.303,0-4.169-1.866-4.169-4.169c0-2.303,1.866-4.171,4.169-4.171s4.17,1.868,4.17,4.171   C52.028,39.139,50.161,41.005,47.858,41.005"></path>
    </g>
</g>
<g id="SvgjsG1008" featurekey="nameFeature-0" transform="matrix(1.5791580819503914,0,0,1.5791580819503914,120.73679191188404,5.176488252758784)" fill="#f70776">
    <path d="M8.32 28.8 c0.13332 0.98668 0.27344 2.0268 0.42012 3.1202 s0.27336 2.1466 0.38004 3.16 s0.17336 1.9333 0.20004 2.76 s0 1.46 -0.08 1.9 s-0.24 0.62668 -0.48 0.56 s-0.58668 -0.48668 -1.04 -1.26 c0 -1.84 -0.08668 -3.58 -0.26 -5.22 s-0.39332 -3.2867 -0.66 -4.94 c-0.61332 0 -1.2133 -0.1 -1.8 -0.3 s-1.12 -0.42668 -1.6 -0.68 s-0.86 -0.52 -1.14 -0.8 s-0.42 -0.51332 -0.42 -0.7 c0.18668 0.05332 0.48 0.12 0.88 0.2 s0.82 0.15332 1.26 0.22 s0.88 0.12 1.32 0.16 s0.79332 0.06 1.06 0.06 c-0.16 -1.2 -0.31332 -2.28 -0.46 -3.24 s-0.29336 -1.8933 -0.44004 -2.8 s-0.29336 -1.8334 -0.44004 -2.78 s-0.28668 -2.0067 -0.42 -3.18 c-0.82668 -0.34668 -1.66 -0.66668 -2.5 -0.96 s-1.6467 -0.62664 -2.42 -0.99996 c-0.05332 -0.16 -0.09332 -0.27332 -0.12 -0.34 s-0.033359 -0.12668 -0.020039 -0.18 s0.05332 -0.11332 0.12 -0.18 s0.18 -0.16668 0.34 -0.3 c0.21332 -0.05332 0.71332 0.033359 1.5 0.26004 s1.72 0.54668 2.8 0.96 s2.24 0.90664 3.48 1.48 s2.44 1.16 3.6 1.76 s2.2 1.2 3.12 1.8 s1.5933 1.1533 2.02 1.66 c0.4 0.32 0.67332 0.69332 0.82 1.12 s0.18668 0.86668 0.12 1.32 s-0.23336 0.90664 -0.50004 1.36 s-0.6 0.88 -1 1.28 c-0.4 0.37332 -0.87332 0.76664 -1.42 1.18 s-1.14 0.8 -1.78 1.16 s-1.3333 0.66668 -2.08 0.92 s-1.5334 0.40664 -2.36 0.45996 z M7.8 26.96 c1.2533 0 2.3668 -0.13336 3.3401 -0.40004 s1.7933 -0.64 2.46 -1.12 s1.1534 -1.04 1.46 -1.68 s0.40668 -1.3067 0.3 -2 c-0.05332 -0.53332 -0.41332 -1.0733 -1.08 -1.62 s-1.4734 -1.08 -2.42 -1.6 s-1.9467 -1.0267 -3 -1.52 s-1.9933 -0.96664 -2.82 -1.42 c0.05332 0.56 0.12664 1.1667 0.21996 1.82 s0.20664 1.4133 0.33996 2.28 s0.3 1.8867 0.5 3.06 s0.43332 2.5733 0.7 4.2 z M22.32 28.240000000000002 c-0.02668 0.16 -0.0866 0.49324 -0.17992 0.99992 s-0.19332 1.1 -0.3 1.78 s-0.2 1.3933 -0.28 2.14 s-0.12668 1.4534 -0.14 2.12 s0.02668 1.2334 0.12 1.7 s0.24664 0.75336 0.45996 0.86004 c0.61332 0.29332 1.24 0.19332 1.88 -0.3 s1.3867 -1.2466 2.24 -2.26 c0.08 0 0.08668 0.10668 0.02 0.32 s-0.17336 0.44664 -0.32004 0.69996 l-0.44 0.76 l-0.34 0.5 c-0.21332 0.26668 -0.52 0.56668 -0.92 0.9 s-0.82668 0.6 -1.28 0.8 s-0.88664 0.28668 -1.3 0.26 s-0.75332 -0.26668 -1.02 -0.72 c-0.13332 -0.32 -0.21332 -0.71332 -0.24 -1.18 s-0.02668 -0.94 0 -1.42 s0.06668 -0.92 0.12 -1.32 s0.09332 -0.69332 0.12 -0.88 c-0.56 1.04 -1.2 2.0267 -1.92 2.96 s-1.4267 1.6666 -2.12 2.2 s-1.3333 0.82 -1.92 0.86 s-1.04 -0.3 -1.36 -1.02 c-0.18668 -0.69332 -0.18668 -1.4733 0 -2.34 s0.46668 -1.6467 0.84 -2.34 c0.56 -0.96 1.1467 -1.84 1.76 -2.64 s1.2666 -1.48 1.96 -2.04 s1.42 -0.96668 2.18 -1.22 s1.5533 -0.31332 2.38 -0.18 z M14.8001 38.3999 c0.26668 0.05332 0.69332 -0.14672 1.28 -0.60004 s1.2 -1.0866 1.84 -1.9 s1.22 -1.76 1.74 -2.84 s0.86 -2.22 1.02 -3.42 l-0.46 0 l-0.7 0.24 c-1.0133 0.66668 -1.88 1.4467 -2.6 2.34 s-1.28 1.76 -1.68 2.6 s-0.64 1.5933 -0.72 2.26 s0.01332 1.1067 0.28 1.32 z M25.880000000000003 27.36 c-0.02668 -0.24 0.099804 -0.30016 0.3798 -0.18016 s0.56668 0.24668 0.86 0.38 c0.10668 0.61332 0.18668 1.1 0.24 1.46 s0.09332 0.7 0.12 1.02 s0.05336 0.66668 0.08004 1.04 s0.06668 0.86664 0.12 1.48 c0.24 -0.61332 0.53332 -1.18 0.88 -1.7 s0.79336 -0.96668 1.34 -1.34 s1.2 -0.64664 1.96 -0.81996 s1.6733 -0.23332 2.74 -0.18 c0 0.21332 -0.07332 0.39332 -0.22 0.54 s-0.48668 0.26 -1.02 0.34 c-0.77332 0.13332 -1.4466 0.39332 -2.02 0.78 s-1.0666 0.83336 -1.48 1.34 s-0.74664 1.0467 -0.99996 1.62 s-0.46 1.1 -0.62 1.58 c-0.02668 0.24 -0.06 0.58 -0.1 1.02 s-0.06668 0.90668 -0.08 1.4 s-0.026641 0.97332 -0.039961 1.44 s0.0066796 0.83336 0.06 1.1 c0.02668 0.13332 -0.03332 0.23332 -0.18 0.3 s-0.31336 0.11336 -0.50004 0.14004 s-0.36 0.013359 -0.52 -0.039961 s-0.24 -0.14664 -0.24 -0.27996 c0.05332 -2.7467 -0.02 -5.1132 -0.22 -7.1 s-0.38 -3.7667 -0.54 -5.34 z M36.68000000000001 22.4 c0.26668 -0.05332 0.42664 0.10672 0.47996 0.48004 s0 0.65332 -0.16 0.84 c-0.29332 0.24 -0.48 0.44668 -0.56 0.62 s-0.26668 0.28664 -0.56 0.33996 c-0.16 -0.02668 -0.3 -0.033359 -0.42 -0.020039 s-0.22 -0.20668 -0.3 -0.66 c0.10668 -0.29332 0.27336 -0.58664 0.50004 -0.87996 s0.56668 -0.53332 1.02 -0.72 z M36.800000000000004 27.6 c0.13332 1.28 0.22676 2.6867 0.28008 4.22 s0.14664 3.14 0.27996 4.82 c0.10668 0.85332 0.21336 1.52 0.32004 2 s0.18668 0.93332 0.24 1.36 c-0.42668 0.08 -0.76 0.07332 -1 -0.02 s-0.46668 -0.20664 -0.68 -0.33996 c-0.05332 -0.42668 -0.11332 -1.1334 -0.18 -2.12 s-0.13336 -2.06 -0.20004 -3.22 s-0.13336 -2.2867 -0.20004 -3.38 s-0.12668 -1.96 -0.18 -2.6 c0.10668 -0.05332 0.19336 -0.13332 0.26004 -0.24 s0.14 -0.2 0.22 -0.28 s0.18668 -0.14668 0.32 -0.2 s0.30664 -0.05332 0.51996 0 z M44.28 27.4 c0.66668 0.10668 1.2202 0.25332 1.6602 0.44 s0.78668 0.39336 1.04 0.62004 s0.45332 0.46 0.6 0.7 s0.28668 0.46668 0.42 0.68 c-0.02668 0.10668 -0.15336 0.09336 -0.38004 -0.039961 s-0.44668 -0.26664 -0.66 -0.39996 c-0.58668 -0.37332 -1.2934 -0.6 -2.12 -0.68 s-1.5934 -0.03332 -2.3 0.14 s-1.2734 0.47332 -1.7 0.9 s-0.53336 0.94668 -0.32004 1.56 s0.59332 1.1466 1.14 1.6 s1.1534 0.86 1.82 1.22 s1.3334 0.68668 2 0.98 s1.2134 0.58664 1.64 0.87996 c0.53332 -0.29332 0.98664 -0.54 1.36 -0.74 s0.70664 -0.38668 0.99996 -0.56 s0.59332 -0.33332 0.9 -0.48 s0.66 -0.31336 1.06 -0.50004 c0.05332 -0.02668 0.1 -0.04 0.14 -0.04 s0.04 0.03332 0 0.1 s-0.14668 0.17336 -0.32 0.32004 s-0.44664 0.35336 -0.81996 0.62004 c-0.18668 0.13332 -0.53336 0.36 -1.04 0.68 s-1.0534 0.66668 -1.64 1.04 c0.32 0.29332 0.57332 0.6 0.76 0.92 c0.16 0.29332 0.27332 0.60664 0.34 0.93996 s0.0066796 0.67332 -0.18 1.02 c-0.53332 0.85332 -1.1333 1.52 -1.8 2 s-1.28 0.81332 -1.84 1 c-0.37332 0.13332 -0.78664 0.14664 -1.24 0.039961 s-0.81332 -0.32 -1.08 -0.64 c-0.29332 -0.42668 -0.36664 -0.86 -0.21996 -1.3 s0.39336 -0.86668 0.74004 -1.28 s0.74668 -0.80664 1.2 -1.18 s0.85332 -0.70664 1.2 -0.99996 c-0.24 -0.26668 -0.70668 -0.59336 -1.4 -0.98004 s-1.4066 -0.81336 -2.14 -1.28 s-1.3933 -0.96668 -1.98 -1.5 s-0.90668 -1.0666 -0.96 -1.6 c-0.10668 -0.58668 -0.033359 -1.1534 0.21996 -1.7 s0.62664 -1.0267 1.12 -1.44 s1.0666 -0.72 1.72 -0.92 s1.34 -0.24668 2.06 -0.14 z M43.92 41.12 c0.29332 0.13332 0.62668 0.13328 1 -0.000039062 s0.72664 -0.32664 1.06 -0.57996 s0.62664 -0.53332 0.87996 -0.84 s0.42 -0.58 0.5 -0.82 c0.08 -0.21332 0.0066796 -0.44664 -0.22 -0.69996 s-0.46 -0.46 -0.7 -0.62 c-0.29332 0.21332 -0.62664 0.48664 -0.99996 0.81996 s-0.7 0.67332 -0.98 1.02 s-0.48668 0.68 -0.62 1 s-0.10664 0.56 0.08004 0.72 z M72.68 13.68 c-0.90668 -0.02668 -1.8399 -0.0067968 -2.7999 0.059884 s-1.9067 0.15336 -2.84 0.26004 s-1.84 0.22668 -2.72 0.36 s-1.68 0.25332 -2.4 0.36 c0.08 2.0267 0.16 4.04 0.24 6.04 s0.18 4.02 0.3 6.06 s0.26668 4.1132 0.44 6.22 s0.39332 4.2932 0.66 6.56 c0 0.10668 -0.09332 0.2 -0.28 0.28 s-0.38668 0.12 -0.6 0.12 s-0.42 -0.03332 -0.62 -0.1 s-0.32668 -0.20668 -0.38 -0.42 c-0.10668 -1.28 -0.2 -2.72 -0.28 -4.32 s-0.16 -3.2333 -0.24 -4.9 s-0.16668 -3.32 -0.26 -4.96 s-0.19332 -3.1533 -0.3 -4.54 s-0.22 -2.5867 -0.34 -3.6 s-0.24668 -1.7333 -0.38 -2.16 c-1.5467 0 -3.18 0.09332 -4.9 0.28 s-3.38 0.37336 -4.98 0.56004 c-0.26668 0.05332 -0.49336 0.04 -0.68004 -0.04 s-0.3 -0.18668 -0.34 -0.32 s0.02 -0.28 0.18 -0.44 s0.46668 -0.32 0.92 -0.48 c1.92 -0.34668 3.7733 -0.63336 5.56 -0.86004 s3.5467 -0.42668 5.28 -0.6 s3.48 -0.34664 5.24 -0.51996 s3.5733 -0.39332 5.44 -0.66 c0.13332 0 0.28664 0.07332 0.45996 0.22 s0.32 0.32 0.44 0.52 s0.20668 0.4 0.26 0.6 s0.026641 0.34 -0.08004 0.42 z M67.32000000000001 28 c0.50668 0.02668 1.0667 0.09996 1.68 0.21996 s1.2133 0.28 1.8 0.48 s1.1267 0.42668 1.62 0.68 s0.9 0.54 1.22 0.86 c0.32 0.29332 0.50668 0.74 0.56 1.34 s0.01332 1.26 -0.12 1.98 s-0.34 1.46 -0.62 2.22 s-0.59332 1.4467 -0.94 2.06 s-0.72 1.12 -1.12 1.52 s-0.77332 0.6 -1.12 0.6 c-0.58668 0 -1.08 -0.14 -1.48 -0.42 s-0.72 -0.62 -0.96 -1.02 s-0.42 -0.82 -0.54 -1.26 s-0.19332 -0.82 -0.22 -1.14 c-0.08 -1.4133 -0.09332 -2.6666 -0.04 -3.76 s0.14664 -2 0.27996 -2.72 c-0.08 -0.13332 -0.16 -0.25332 -0.24 -0.36 s-0.16 -0.20668 -0.24 -0.3 s-0.17332 -0.18 -0.28 -0.26 c0.10668 -0.05332 0.21336 -0.13332 0.32004 -0.24 c0.21332 -0.16 0.36 -0.32 0.44 -0.48 z M68.76 37.52 c0.08 0.10668 0.18688 0.22004 0.3202 0.34004 s0.3 0.21332 0.5 0.28 s0.40668 0.07336 0.62 0.020039 s0.44 -0.2 0.68 -0.44 c0.64 -0.66668 1.12 -1.3534 1.44 -2.06 s0.52668 -1.3734 0.62 -2 s0.08 -1.18 -0.04 -1.66 s-0.31332 -0.82668 -0.58 -1.04 c-0.21332 -0.13332 -0.39332 -0.24664 -0.54 -0.33996 s-0.33336 -0.18 -0.56004 -0.26 s-0.51336 -0.16668 -0.86004 -0.26 s-0.8 -0.22 -1.36 -0.38 c-0.26668 0.85332 -0.45336 1.7066 -0.56004 2.56 s-0.15336 1.6333 -0.14004 2.34 s0.06664 1.32 0.15996 1.84 s0.19332 0.87332 0.3 1.06 z M77.56 38.24 c0.18668 0.13332 0.49332 -0.093436 0.92 -0.68012 s0.84 -1.34 1.24 -2.26 s0.73332 -1.9 1 -2.94 s0.34668 -1.9467 0.24 -2.72 c0 -0.16 0.06668 -0.26 0.2 -0.3 s0.28664 -0.06 0.45996 -0.06 s0.34664 0.01332 0.51996 0.04 s0.3 0.05336 0.38 0.08004 c-0.05332 0.58668 -0.12664 1.3267 -0.21996 2.22 s-0.15332 1.78 -0.18 2.66 s0.0066408 1.68 0.09996 2.4 s0.31332 1.1867 0.66 1.4 c0.29332 0.18668 0.63332 0.17336 1.02 -0.039961 s0.76 -0.48 1.12 -0.8 s0.68668 -0.60668 0.98 -0.86 s0.48 -0.34 0.56 -0.26 c-0.10668 0.45332 -0.33336 0.89332 -0.68004 1.32 s-0.74 0.78668 -1.18 1.08 s-0.90668 0.5 -1.4 0.62 s-0.94 0.1 -1.34 -0.06 c-0.16 -0.02668 -0.28668 -0.18 -0.38 -0.46 s-0.17332 -0.60668 -0.24 -0.98 s-0.12 -0.77332 -0.16 -1.2 s-0.08668 -0.81336 -0.14 -1.16 l-0.72 1.44 l-0.8 1.52 l-0.76 1.24 l-0.6 0.6 c-0.53332 0.21332 -0.94664 0.26 -1.24 0.14 s-0.49332 -0.28668 -0.6 -0.5 c-0.16 -0.08 -0.27332 -0.35332 -0.34 -0.82 s-0.12 -1.06 -0.16 -1.78 s-0.06 -1.5333 -0.06 -2.44 l0 -2.78 l-0.04 -2.8 l-0.12 -2.54 c0.18668 0 0.37336 0.01332 0.56004 0.04 c0.16 0.02668 0.32 0.06 0.48 0.1 s0.29332 0.12668 0.4 0.26 c0.13332 0.61332 0.15332 1.6933 0.06 3.24 s-0.16664 3.4134 -0.21996 5.6 c0 0.08 0.0066796 0.23332 0.02 0.46 s0.04 0.47336 0.08 0.74004 s0.10668 0.52 0.2 0.76 s0.22 0.4 0.38 0.48 z M86.00000000000001 27.36 c-0.02668 -0.24 0.099804 -0.30016 0.3798 -0.18016 s0.56668 0.24668 0.86 0.38 c0.10668 0.61332 0.18668 1.1 0.24 1.46 s0.09332 0.7 0.12 1.02 s0.05336 0.66668 0.08004 1.04 s0.06668 0.86664 0.12 1.48 c0.24 -0.61332 0.53332 -1.18 0.88 -1.7 s0.79336 -0.96668 1.34 -1.34 s1.2 -0.64664 1.96 -0.81996 s1.6733 -0.23332 2.74 -0.18 c0 0.21332 -0.07332 0.39332 -0.22 0.54 s-0.48668 0.26 -1.02 0.34 c-0.77332 0.13332 -1.4466 0.39332 -2.02 0.78 s-1.0666 0.83336 -1.48 1.34 s-0.74664 1.0467 -0.99996 1.62 s-0.46 1.1 -0.62 1.58 c-0.02668 0.24 -0.06 0.58 -0.1 1.02 s-0.06668 0.90668 -0.08 1.4 s-0.026641 0.97332 -0.039961 1.44 s0.0066796 0.83336 0.06 1.1 c0.02668 0.13332 -0.03332 0.23332 -0.18 0.3 s-0.31336 0.11336 -0.50004 0.14004 s-0.36 0.013359 -0.52 -0.039961 s-0.24 -0.14664 -0.24 -0.27996 c0.05332 -2.7467 -0.02 -5.1132 -0.22 -7.1 s-0.38 -3.7667 -0.54 -5.34 z M96.80000000000001 22.4 c0.26668 -0.05332 0.42664 0.10672 0.47996 0.48004 s0 0.65332 -0.16 0.84 c-0.29332 0.24 -0.48 0.44668 -0.56 0.62 s-0.26668 0.28664 -0.56 0.33996 c-0.16 -0.02668 -0.3 -0.033359 -0.42 -0.020039 s-0.22 -0.20668 -0.3 -0.66 c0.10668 -0.29332 0.27336 -0.58664 0.50004 -0.87996 s0.56668 -0.53332 1.02 -0.72 z M96.92000000000002 27.6 c0.13332 1.28 0.22676 2.6867 0.28008 4.22 s0.14664 3.14 0.27996 4.82 c0.10668 0.85332 0.21336 1.52 0.32004 2 s0.18668 0.93332 0.24 1.36 c-0.42668 0.08 -0.76 0.07332 -1 -0.02 s-0.46668 -0.20664 -0.68 -0.33996 c-0.05332 -0.42668 -0.11332 -1.1334 -0.18 -2.12 s-0.13336 -2.06 -0.20004 -3.22 s-0.13336 -2.2867 -0.20004 -3.38 s-0.12668 -1.96 -0.18 -2.6 c0.10668 -0.05332 0.19336 -0.13332 0.26004 -0.24 s0.14 -0.2 0.22 -0.28 s0.18668 -0.14668 0.32 -0.2 s0.30664 -0.05332 0.51996 0 z M104.40000000000002 27.4 c0.66668 0.10668 1.2202 0.25332 1.6602 0.44 s0.78668 0.39336 1.04 0.62004 s0.45332 0.46 0.6 0.7 s0.28668 0.46668 0.42 0.68 c-0.02668 0.10668 -0.15336 0.09336 -0.38004 -0.039961 s-0.44668 -0.26664 -0.66 -0.39996 c-0.58668 -0.37332 -1.2934 -0.6 -2.12 -0.68 s-1.5934 -0.03332 -2.3 0.14 s-1.2734 0.47332 -1.7 0.9 s-0.53336 0.94668 -0.32004 1.56 s0.59332 1.1466 1.14 1.6 s1.1534 0.86 1.82 1.22 s1.3334 0.68668 2 0.98 s1.2134 0.58664 1.64 0.87996 c0.53332 -0.29332 0.98664 -0.54 1.36 -0.74 s0.70664 -0.38668 0.99996 -0.56 s0.59332 -0.33332 0.9 -0.48 s0.66 -0.31336 1.06 -0.50004 c0.05332 -0.02668 0.1 -0.04 0.14 -0.04 s0.04 0.03332 0 0.1 s-0.14668 0.17336 -0.32 0.32004 s-0.44664 0.35336 -0.81996 0.62004 c-0.18668 0.13332 -0.53336 0.36 -1.04 0.68 s-1.0534 0.66668 -1.64 1.04 c0.32 0.29332 0.57332 0.6 0.76 0.92 c0.16 0.29332 0.27332 0.60664 0.34 0.93996 s0.0066796 0.67332 -0.18 1.02 c-0.53332 0.85332 -1.1333 1.52 -1.8 2 s-1.28 0.81332 -1.84 1 c-0.37332 0.13332 -0.78664 0.14664 -1.24 0.039961 s-0.81332 -0.32 -1.08 -0.64 c-0.29332 -0.42668 -0.36664 -0.86 -0.21996 -1.3 s0.39336 -0.86668 0.74004 -1.28 s0.74668 -0.80664 1.2 -1.18 s0.85332 -0.70664 1.2 -0.99996 c-0.24 -0.26668 -0.70668 -0.59336 -1.4 -0.98004 s-1.4066 -0.81336 -2.14 -1.28 s-1.3933 -0.96668 -1.98 -1.5 s-0.90668 -1.0666 -0.96 -1.6 c-0.10668 -0.58668 -0.033359 -1.1534 0.21996 -1.7 s0.62664 -1.0267 1.12 -1.44 s1.0666 -0.72 1.72 -0.92 s1.34 -0.24668 2.06 -0.14 z M104.04000000000002 41.12 c0.29332 0.13332 0.62668 0.13328 1 -0.000039062 s0.72664 -0.32664 1.06 -0.57996 s0.62664 -0.53332 0.87996 -0.84 s0.42 -0.58 0.5 -0.82 c0.08 -0.21332 0.0066796 -0.44664 -0.22 -0.69996 s-0.46 -0.46 -0.7 -0.62 c-0.29332 0.21332 -0.62664 0.48664 -0.99996 0.81996 s-0.7 0.67332 -0.98 1.02 s-0.48668 0.68 -0.62 1 s-0.10664 0.56 0.08004 0.72 z M111.12000000000002 26.52 c0 -0.24 0.066328 -0.38012 0.19965 -0.42012 s0.27332 -0.03332 0.42 0.02 s0.29336 0.14 0.44004 0.26 s0.24668 0.20668 0.3 0.26 c0.05332 0.69332 0.026641 1.64 -0.08004 2.84 s-0.16 2.6933 -0.16 4.48 c0.10668 -0.42668 0.26668 -0.93336 0.48 -1.52 s0.46 -1.18 0.74 -1.78 s0.58668 -1.16 0.92 -1.68 s0.66 -0.93332 0.98 -1.24 s0.62668 -0.46 0.92 -0.46 s0.56 0.22668 0.8 0.68 c0.05332 0.13332 0.1 0.40664 0.14 0.81996 s0.06668 0.91332 0.08 1.5 s0.03332 1.24 0.06 1.96 s0.06668 1.4533 0.12 2.2 c0.24 -0.58668 0.51332 -1.2334 0.82 -1.94 s0.63336 -1.3467 0.98004 -1.92 s0.72 -1.02 1.12 -1.34 s0.82668 -0.38668 1.28 -0.2 c0.21332 0.08 0.36 0.32668 0.44 0.74 s0.14668 0.9 0.2 1.46 s0.11332 1.1533 0.18 1.78 s0.19336 1.1934 0.38004 1.7 s0.45336 0.91336 0.80004 1.22 s0.81336 0.42 1.4 0.34 c0.32 0 0.55332 0.0066796 0.7 0.02 s0.25336 0.03332 0.32004 0.06 s0.09336 0.06668 0.08004 0.12 s-0.02 0.13332 -0.02 0.24 c-0.98668 0.50668 -1.7934 0.67336 -2.42 0.50004 s-1.12 -0.54664 -1.48 -1.12 s-0.61332 -1.2666 -0.76 -2.08 s-0.24668 -1.62 -0.3 -2.42 c-0.05332 -0.34668 -0.16664 -0.49336 -0.33996 -0.44004 s-0.38664 0.25332 -0.63996 0.6 s-0.52664 0.78 -0.81996 1.3 s-0.57332 1.0733 -0.84 1.66 s-0.5 1.1534 -0.7 1.7 s-0.35332 0.99336 -0.46 1.34 c-0.13332 0.24 -0.34664 0.30668 -0.63996 0.2 s-0.48 -0.30668 -0.56 -0.6 c-0.10668 -0.42668 -0.16668 -0.95336 -0.18 -1.58 s-0.01332 -1.26 0 -1.9 s0.03332 -1.26 0.06 -1.86 s0.02668 -1.1133 0 -1.54 s-0.08 -0.72 -0.16 -0.88 s-0.22668 -0.12 -0.44 0.12 c-0.45332 0.69332 -0.87332 1.48 -1.26 2.36 s-0.72668 1.7933 -1.02 2.74 s-0.54 1.8934 -0.74 2.84 s-0.32668 1.8067 -0.38 2.58 c-0.45332 0.10668 -0.77332 0.04668 -0.96 -0.18 s-0.34668 -0.46 -0.48 -0.7 c0.05332 -0.34668 0.1 -1.02 0.14 -2.02 s0.08 -2.14 0.12 -3.42 s0.08 -2.5867 0.12 -3.92 s0.07332 -2.4933 0.1 -3.48 z"></path>
</g>
</svg>